<svg width="33" height="32" fill="none" xmlns="http://www.w3.org/2000/svg"><path d="M3 32h12.6V18.3H3V32ZM31.4 8.7H24l1.4-.8c1.6-1 2.5-2.6 2.5-4 0-1.1-.7-2.1-1.5-2.8-.8-.7-1.9-1.1-3-1.1-1.2 0-2.4.4-3.3 1-1.5 1-2.6 2.6-3.4 4.1l-.1.2-1-1.7c-.8-1-1.6-2-2.6-2.5C12 .5 11 0 9.7 0a5 5 0 0 0-3.2 1.3C5.7 2 5 3.2 5 4.3c0 .7.2 1.5.7 2.2.6 1 1.4 1.6 2.6 2.2H1.6c-.9 0-1.6.7-1.6 1.6V16h15.5V8.7h2V16H33v-5.8c0-1-.7-1.6-1.6-1.6ZM8.9 6.4l-1.2-1-.3-1c0-.5.2-1 .7-1.5.4-.4 1-.7 1.6-.7.7 0 1.4.2 2 .7 1 .7 2 1.7 2.6 3.1l.8 2.1A15 15 0 0 1 9 6.4Zm10.6-1.6C20 4 20.7 3.4 21.4 3c.7-.5 1.4-.7 2-.7.6 0 1.1.2 1.5.5.4.3.6.7.6 1.2 0 .4-.3 1.2-1.5 2-1 .8-3.1 1.7-6.1 2.3.3-1.2.9-2.5 1.6-3.5Zm-2 27.2H30V18.3H17.5V32Z" fill="#63D1BB"/></svg>