<svg xmlns="http://www.w3.org/2000/svg" xmlns:xlink="http://www.w3.org/1999/xlink"><symbol id="card"><path class="header__path" d="M20.188 6.857h-3.55L13.188.381C12.985 0 12.58-.095 12.174.095s-.507.572-.304.953l3.145 5.81H5.783l3.145-5.81c.202-.381 0-.762-.305-.953-.406-.19-.811 0-1.014.286l-3.45 6.476H.812c-.406 0-.812.286-.812.762 0 .381.304.762.812.762h.202l.914 2.857c-.203.095-.305.286-.305.572 0 .38.305.666.71.666L4.058 18h12.884l1.725-5.524c.405 0 .71-.286.71-.667 0-.19-.102-.476-.304-.57l.912-2.858h.203c.406 0 .812-.286.812-.762 0-.476-.406-.762-.812-.762Zm-4.565 9.62H5.073L3.854 12.38h13.087l-1.319 4.095Zm1.623-5.525H3.348l-.812-2.666h15.522l-.812 2.666Z"/></symbol><symbol id="footer-logo"><path d="M19.3 21.4c-.1-2.7-.5-5.3-.5-8 0-2.2.4-4.4-.4-6.4v-.7c.3-1-3.2-.5-3.7.5-.3.3-.5.6-.4 1V8c-.6 3.1-1.5 6.2-2.5 9.3l-1.4 3.5c-.6-1.1-1.2-2.2-1.6-3.4C7.4 14 6.2 10.5 4.5 7.3c.2-1.5-3.2-1.4-3.9 0a8.3 8.3 0 0 0-.4 5.1c.3 2 .4 4 .4 6.1 0 4 .4 7.9.4 11.8-.4.4-.5 1 0 1.4l.5.5c1 .7 3.6.1 3.6-1.3 0-4-.3-8.1-.4-12.3v-1.2l.2.4c.6 1.6 1.3 3.2 2.2 4.7 1 1.5 1.3 3 1.8 4.6-.2.2-.3.5-.2.7 0 .2.1.3.3.4.6.5 1.8.3 2.5 0 .4 0 .7-.3.9-.4.3-.2.9-.7.7-1.1l-.1-.3c.5-1.3.7-2.6 1-4 .3-1.3.8-2.7 1.3-4 0 .6 0 1.2.2 1.9.2 2.6 0 5 0 7.5 0 .8 0 1.6.2 2.5 0 .3.4 1.8.3 2-.8.4-.6 1 .2 1.2.9.2 2 0 2.8-.7 1.2-1 .6-2.8.4-4.2-.5-2.3 0-5-.1-7.3Zm8.4.6c-.1-2-.8-3.8-.8-5.8 0-2.3.2-4.6-.2-6.9-.1-.6-4.1.1-4 1 .4 2.1.3 4.2.3 6.4 0 2 .5 3.9.7 5.9.3 2-.1 4.2 0 6.1.2 1 .9 2.7.2 3.6-.4.5 1.5.3 1.6.3.8 0 1.8-.4 2.3-1 .7-.8.2-2.4 0-3.4-.2-2 0-4.1-.1-6.1ZM44 18.8c-2-2.8-5.9-.8-8.6-1.5C34 16.9 34 15 34 13.9c0-1.4 0-2.7-.3-4 0-1.1 0-2.1.7-3l.8-.2 1.1-.1c1.5-.1 4.6.2 4 2.5-.3 1 3.6.3 4-.6 1.1-4.6-7.4-3.7-9.8-3.1-2.2.6-4.6 1.8-4.8 4.3-.1 1.2.3 2.4.3 3.6.1 1.4-.2 2.8.3 4.1 1.1 3 5.5 1.6 7.8 1.7 3.8.3 2.7 5.5 2.7 7.9 0 1.2 1.2 3.3.2 4.4-.6.7-2 .7-2.8.8-.8.1-2.2.3-2.7-.5-1-1.4.1-3.8 0-5.3-.2-1-4.2-.1-4 1 .3 2.5-1.4 6 2.4 6.5 2.4.3 5.2-.2 7.5-.9 1.2-.4 2.3-.9 3.2-1.8 1-.9.7-2.3.4-3.5-.5-3 1-6.4-1-8.9Zm17.5-.2c-.1-3.8-.7-7.5-.7-11.2 0-2-4-1.3-4 .3 0 3.5.5 7.1.7 10.7v.2l-6 .2c.3-4.6-.6-9.2-.3-13.8 0-.6-4-.1-4 1-.2 4.4.6 8.8.5 13.3l-.3 6.4.3 3.2c.1 1 .5 2.3.2 3.3-.2.8 3.7.3 4-.7.5-1.8-.2-4-.4-5.7-.2-1.7 0-3.5 0-5.2 2-.1 4.2-.3 6.2 0 0 1.4.2 2.8.3 4l.2 3.5c0 1 0 2.5-.2 3.5-.8 2.1 3 2 3.7.4.7-1.9.5-4.2.4-6.1-.2-2.5-.6-5-.6-7.3ZM78.4 23c-.9-2.8-2.4-5.2-3.6-7.8l3-5.9c.7-1.7 1.3-3.7 3-5 .6-.4.6-1-.3-1-.9-.1-2 .2-2.8.7a12.1 12.1 0 0 0-3 4.4l-3 6-.2.4c-.5.3-.8.8-.6 1.3l-2.5 4.6c-.3-5.5-1-11-1.2-16.5 0-1.3-4-.5-4 1 .3 6.8 1.3 13.6 1.4 20.5-.3.4-.2.6 0 .7l-.1 5.2c-.5.7.5 1.1 1 1.1h.2c.7 0 2.6-.3 2.7-1.4.2-2 .3-4.2.2-6.2a32 32 0 0 0 4.1-5.6c.8 1.5 1.5 3 2 4.6 1 2.7 2.3 5.2 3.1 8 .5 1.7 4.5.6 4-1-1-2.9-2.5-5.3-3.4-8.1Zm23.6-4.6c-.2-.8-1.4-.8-2.3-.8v-1l-.4-8c-.2-2.4-1.6-3.2-4-3.1-2.4 0-5.3.5-7.6 1.4a7 7 0 0 0-4.6 5.6c-.5 3 .2 6.2.4 9.2.2 3.5.1 7 .1 10.4 0 .6 4 0 4-1V23l-.2-2.4c1.4-.6 3.8 0 5.2 0 1 .2 2.2-.1 3.2-.2 0 2.3 0 4.6.2 6.8 0 1.2.5 3.5-.4 4.5-.4.5 1.5.3 1.6.3.8 0 1.8-.4 2.3-1 .9-1 .5-3.8.4-5l-.1-5.7c1-.2 2.4-1 2.2-1.8Zm-14.7-.1-.3-3.7c-.2-2.3.1-5.6 2.3-7 .6-.3 1.8-.2 2.5-.3 1-.2 2-.4 2.8.2 1.2.8.9 3.6.9 4.8l.3 6-1.7.1c-2.3-.2-4.7-.6-6.8-.1Zm-63-11.6c.5-.1 1-.2 1.5-.5L26 6c.5-.3 1-.8.7-1.4-.5-1.1-.4-2.2-.4-3.4 0-1-1-1.2-1.8-1.2-.7.1-2.2.6-2.2 1.5v4.4l.5.5a3 3 0 0 0 1.5.3Z"/></symbol><symbol id="html-academy"><path d="M13.7 0h-.1L0 1.4V26l13.6 8L27 26V1.4L13.7 0ZM25 12 13.6 5.4v-.1h-.2V5L1.9 12V3l11.5-1.2L25.1 3v9ZM13.4 6.9 25 13.5 20.5 16l-7.2-4.2v1.4l6 3.5-1 .4-5-3v1.5l3.9 2.2-.8.5-3-1.7V18l1.9 1.1-1.9 1.1L2 13.6l11.4-6.8ZM2 15l11.4 6.7v1L5.5 18v1.4l8 4.8v1.1l-8-4.7V22l8 4.8 8.2-4.9V17l3.4-2v10l-11.6 6.8L2 25v-9.8Z"/></symbol><symbol id="search"><path class="header__path" d="m17.693 16.057-3.477-3.477c1.023-1.33 1.534-2.966 1.534-4.705C15.75 3.477 12.273 0 7.875 0S0 3.477 0 7.875s3.477 7.875 7.875 7.875c1.739 0 3.375-.614 4.704-1.534l3.478 3.477c.204.205.409.307.818.307.614 0 1.125-.511 1.125-1.125 0-.204-.102-.511-.307-.818ZM2.25 7.875c0-3.068 2.557-5.625 5.625-5.625S13.5 4.807 13.5 7.875 10.943 13.5 7.875 13.5 2.25 10.943 2.25 7.875Z"/></symbol><symbol id="telegram"><path fill-rule="evenodd" clip-rule="evenodd" d="m19.5.7.2.6L17 17a.7.7 0 0 1-1 .5l-8-5.3a.7.7 0 0 1 0-1L10.5 8l-4.3 2.9h-.7L.4 8.3a.7.7 0 0 1 0-1.2L18.8.5c.2 0 .5 0 .7.2ZM2.3 7.8 6 9.6l7.5-5a.7.7 0 0 1 .9 1l-4.8 6 6.4 4.2 2.3-13.6-16 5.6Z"/></symbol><symbol id="video-button"><path d="M98.2 18.3s-.9-7-3.8-10.2c-3.7-4-7.8-4.1-9.6-4.4-13.5-1-33.8-1-33.8-1h-.1s-20.3 0-33.8 1c-1.9.3-6 .4-9.6 4.4-2.8 3.1-3.8 10.2-3.8 10.2s-1 8.3-1 16.6v7.8c0 8.4 1 16.7 1 16.7s.9 7 3.8 10.2c3.7 4 8.5 4 10.6 4.4 7.8.8 32.9 1 32.9 1s20.3 0 33.8-1c1.9-.3 6-.4 9.6-4.4 2.8-3.1 3.8-10.2 3.8-10.2s1-8.3 1-16.7V35c0-8.3-1-16.6-1-16.6Z" fill="#63D1BB"/><path d="M50.9 77.8c-1 0-25.3-.3-33-1h-.2l-1.2-.2c-2.5-.3-7.3-1-11-5-3.4-3.7-4.4-11-4.5-11.8 0-.3-1-8.6-1-17v-7.7c0-8.5 1-16.7 1-17 0-.9 1.1-8 4.5-11.8 4-4.5 8.6-5 10.8-5.2h.6C30.4 0 50.7 0 51 0h.1c.2 0 20.5 0 34 1l.6.1c2.2.2 6.8.7 10.8 5.2 3.5 3.6 4.5 11 4.6 11.7 0 .3 1 8.6 1 17v8c0 8.4-1 16.6-1 16.9-.1.9-1.2 8.2-4.6 11.8-4 4.5-8.6 5-10.8 5.2H85c-13.5 1-33.9 1-34.1 1Zm-32.3-6.5c7.6.7 31.6 1 32.4 1 .7 0 20.4 0 33.5-1h.6c1.8-.3 4.6-.6 7.3-3.4 1.8-2 3-7 3.1-8.7.1-.5 1-8.5 1-16.3V35c0-8-1-15.9-1-16.4-.4-2.4-1.5-6.8-3.2-8.6-2.7-3-5.5-3.1-7.3-3.3l-.6-.1c-13.3-1-33.3-1-33.5-1h-.1c-.2 0-20.3 0-33.5 1h-.6c-1.8.3-4.6.6-7.3 3.4-1.8 2-3 7-3.1 8.7-.1.6-1 8.6-1 16.4V43c0 7.8 1 15.8 1 16.3.3 2.4 1.4 6.9 3.1 8.6 2.4 2.6 5.4 3 7.6 3.3l1.6.1Z" fill="#fff"/><path d="M38.8 20.8v36.1L69 39 38.8 20.8Z" fill="#fff"/></symbol><symbol id="vk"><path d="M1 5.8c0-.8.5-1.3 1.5-1.3h4c.3 0 .5.1.5.4L8.4 8a39.7 39.7 0 0 0 2.4 3.4s.2 0 .2-.2l.1-.3V6.7c0-.3 0-.5-.2-.6l-.8-.2c-.3 0-.5-.3-.5-.6v-.1c.4-1.1 1.5-1.7 3.2-1.7h1.5c.7 0 1.3.2 1.7.5.4.3.7.8.7 1.5v5.7l.3.1c.3 0 .5-.1.7-.4A17.7 17.7 0 0 0 21 5.6l.6-.7.8-.4h4.5c.4 0 .7.2.8.5l.2.3a2.4 2.4 0 0 1 0 .6V6c0 .7-.4 1.5-.9 2.2-.5.8-1.1 1.7-2 2.6a27.6 27.6 0 0 0-1.6 2.3c0 .1 0 .3.2.5l3.9 4.6c.2.3.3.5.3.9s-.2.7-.5 1a2 2 0 0 1-1.1.3h-4.6l-.1.1c-.4 0-.8-.2-1.1-.5a241.3 241.3 0 0 1-3-3.3A38.5 38.5 0 0 0 17 19l-.1.4c-.2.6-.6 1-1.1 1h-3c-1.5 0-3-.6-4.4-1.8-1.5-1.3-2.8-3-4-5A47.5 47.5 0 0 1 1 5.8Zm16 6.6c-.4 0-.7-.1-1-.3a.9.9 0 0 1-.5-.8V5.5c0-.3 0-.6-.2-.7-.2-.2-.5-.2-1-.2h-1.5c-.7 0-1.3.1-1.7.4.8.3 1.2 1 1.2 1.7V11c0 .4-.2.8-.6 1-.3.3-.6.5-1 .5-.6 0-1-.3-1.3-.8-1.3-2-2.4-3.8-3-5.6L6 5.6H2.2v.7l.6 1.4a33 33 0 0 0 4.8 8.6c1.8 2 3.5 3.1 5.2 3.1h2.9l.1-.4v-.3l.6-2.2.3-.6c.2-.2.5-.3.7-.3.5 0 .9.3 1.3.8L21 19c.2.2.3.3.5.3h4.4c.5 0 .8-.1.8-.4l-.1-.2-3.9-4.6c-.3-.3-.4-.7-.4-1 0-.5.1-.9.4-1.3l1.3-1.6L25.8 8c.5-.7.8-1.3 1-1.9v-.5h-4.2c-.3 0-.5.2-.6.4l-.2.5c-.4 1.1-1.6 3-3.5 5.3-.4.4-.8.6-1.3.6Z"/></symbol><symbol id="youtube"><path d="m15.9 9.3-5.3-3.5a.7.7 0 0 0-1 .5v7a.7.7 0 0 0 1 .6l5.3-3.5a.7.7 0 0 0 0-1.1Zm-5 2.8V7.6l3.4 2.2-3.4 2.3Zm12.5-8.6A2.4 2.4 0 0 0 21.9 2C18.2.5 12.3.5 12 .5c-.3 0-6.2 0-10 1.4A2.4 2.4 0 0 0 .7 3.5C.3 4.6 0 6.5 0 9.8s.3 5.3.6 6.3a2.4 2.4 0 0 0 1.5 1.7c3.7 1.4 9.6 1.4 9.9 1.4.8 0 6.4 0 10-1.4a2.4 2.4 0 0 0 1.4-1.7c.3-1 .6-3 .6-6.3 0-3.2-.3-5.2-.6-6.3ZM22 15.8a1 1 0 0 1-.6.7C18 18 12 18 12 18s-6 0-9.5-1.4a1 1 0 0 1-.6-.7c-.3-1-.6-2.8-.6-6 0-3 .3-5 .6-6a1 1 0 0 1 .6-.7C6 1.8 12 1.8 12 1.8s6 0 9.5 1.3a1 1 0 0 1 .6.8c.3 1 .6 2.8.6 6 0 3-.3 4.9-.6 6Z"/></symbol></svg>