<svg width="102" height="34" viewBox="0 0 102 34"
      xmlns="http://www.w3.org/2000/svg">
  <path
    d="M19.3 21.4c-.1-2.7-.5-5.3-.5-8 0-2.2.4-4.4-.4-6.4v-.7c.3-1-3.2-.5-3.7.5-.3.3-.5.6-.4 1V8c-.6 3.1-1.5 6.2-2.5 9.3l-1.4 3.5c-.6-1.1-1.2-2.2-1.6-3.4-1.4-3.4-2.6-6.9-4.3-10.1.2-1.5-3.2-1.4-3.9 0a8.3 8.3 0 0 0-.4 5.1c.3 2 .4 4 .4 6.1 0 4 .4 7.9.4 11.8-.4.4-.5 1 0 1.4l.5.5c1 .7 3.6.1 3.6-1.3 0-4-.3-8.1-.4-12.3v-1.2l.2.4c.6 1.6 1.3 3.2 2.2 4.7 1 1.5 1.3 3 1.8 4.6-.2.2-.3.5-.2.7 0 .2.1.3.3.4.6.5 1.8.3 2.5 0 .4 0 .7-.3.9-.4.3-.2.9-.7.7-1.1l-.1-.3c.5-1.3.7-2.6 1-4 .3-1.3.8-2.7 1.3-4 0 .6 0 1.2.2 1.9.2 2.6 0 5 0 7.5 0 .8 0 1.6.2 2.5 0 .3.4 1.8.3 2-.8.4-.6 1 .2 1.2.9.2 2 0 2.8-.7 1.2-1 .6-2.8.4-4.2-.5-2.3 0-5-.1-7.3ZM27.7 22c-.1-2-.8-3.8-.8-5.8 0-2.3.2-4.6-.2-6.9-.1-.6-4.1.1-4 1 .4 2.1.3 4.2.3 6.4 0 2 .5 3.9.7 5.9.3 2-.1 4.2 0 6.1.2 1 .9 2.7.2 3.6-.4.5 1.5.3 1.6.3.8 0 1.8-.4 2.3-1 .7-.8.2-2.4 0-3.4-.2-2 0-4.1-.1-6.1ZM44 18.8c-2-2.8-5.9-.8-8.6-1.5C34 16.9 34 15 34 13.9c0-1.4 0-2.7-.3-4 0-1.1 0-2.1.7-3l.8-.2 1.1-.1c1.5-.1 4.6.2 4 2.5-.3 1 3.6.3 4-.6 1.1-4.6-7.4-3.7-9.8-3.1-2.2.6-4.6 1.8-4.8 4.3-.1 1.2.3 2.4.3 3.6.1 1.4-.2 2.8.3 4.1 1.1 3 5.5 1.6 7.8 1.7 3.8.3 2.7 5.5 2.7 7.9 0 1.2 1.2 3.3.2 4.4-.6.7-2 .7-2.8.8-.8.1-2.2.3-2.7-.5-1-1.4.1-3.8 0-5.3-.2-1-4.2-.1-4 1 .3 2.5-1.4 6 2.4 6.5 2.4.3 5.2-.2 7.5-.9 1.2-.4 2.3-.9 3.2-1.8 1-.9.7-2.3.4-3.5-.5-3 1-6.4-1-8.9ZM61.5 18.6c-.1-3.8-.7-7.5-.7-11.2 0-2-4-1.3-4 .3 0 3.5.5 7.1.7 10.7v.2l-6 .2c.3-4.6-.6-9.2-.3-13.8 0-.6-4-.1-4 1-.2 4.4.6 8.8.5 13.3l-.3 6.4.3 3.2c.1 1 .5 2.3.2 3.3-.2.8 3.7.3 4-.7.5-1.8-.2-4-.4-5.7-.2-1.7 0-3.5 0-5.2 2-.1 4.2-.3 6.2 0 0 1.4.2 2.8.3 4l.2 3.5c0 1 0 2.5-.2 3.5-.8 2.1 3 2 3.7.4.7-1.9.5-4.2.4-6.1-.2-2.5-.6-5-.6-7.3ZM78.4 23c-.9-2.8-2.4-5.2-3.6-7.8l3-5.9c.7-1.7 1.3-3.7 3-5 .6-.4.6-1-.3-1-.9-.1-2 .2-2.8.7a12.1 12.1 0 0 0-3 4.4l-3 6-.2.4c-.5.3-.8.8-.6 1.3l-2.5 4.6c-.3-5.5-1-11-1.2-16.5 0-1.3-4-.5-4 1 .3 6.8 1.3 13.6 1.4 20.5-.3.4-.2.6 0 .7l-.1 5.2c-.5.7.5 1.1 1 1.1h.2c.7 0 2.6-.3 2.7-1.4.2-2 .3-4.2.2-6.2a32 32 0 0 0 4.1-5.6c.8 1.5 1.5 3 2 4.6 1 2.7 2.3 5.2 3.1 8 .5 1.7 4.5.6 4-1-1-2.9-2.5-5.3-3.4-8.1ZM102 18.4c-.2-.8-1.4-.8-2.3-.8v-1l-.4-8c-.2-2.4-1.6-3.2-4-3.1-2.4 0-5.3.5-7.6 1.4a7 7 0 0 0-4.6 5.6c-.5 3 .2 6.2.4 9.2.2 3.5.1 7 .1 10.4 0 .6 4 0 4-1V23l-.2-2.4c1.4-.6 3.8 0 5.2 0 1 .2 2.2-.1 3.2-.2 0 2.3 0 4.6.2 6.8 0 1.2.5 3.5-.4 4.5-.4.5 1.5.3 1.6.3.8 0 1.8-.4 2.3-1 .9-1 .5-3.8.4-5l-.1-5.7c1-.2 2.4-1 2.2-1.8Zm-14.7-.1-.3-3.7c-.2-2.3.1-5.6 2.3-7 .6-.3 1.8-.2 2.5-.3 1-.2 2-.4 2.8.2 1.2.8.9 3.6.9 4.8l.3 6-1.7.1c-2.3-.2-4.7-.6-6.8-.1ZM24.3 6.7c.5-.1 1-.2 1.5-.5L26 6c.5-.3 1-.8.7-1.4-.5-1.1-.4-2.2-.4-3.4 0-1-1-1.2-1.8-1.2-.7.1-2.2.6-2.2 1.5v4.4l.5.5a3 3 0 0 0 1.5.3Z" />
</svg>
