<svg width="25" height="24" viewBox="0 0 25 24" xmlns="http://www.w3.org/2000/svg">
  <path
    d="M17.4 24h-1A18.8 18.8 0 0 1 0 6.7l-.1-1.4c.1-.9.5-1.4 1.1-2 .6-.7 1.6-1.5 2.5-1.6.7 0 1.8.5 2.2 1 .5.6.7 1.6.9 2.4.2 1 .6 2 .5 2.8-.2 1.2-1.9 1.7-2.3 2.6 1.7 3.6 4.2 6.4 7.6 8.2.8-.5 1.6-2 2.8-2 .4 0 1 .3 1.4.4.5 0 1 .3 1.3.5.8.3 2 .6 2.5 1.2.4.6.7 1.5.6 2.1-.3 1.3-2.5 2.7-3.7 3.1ZM12.6 1.5c6 0 10.9 4.7 10.9 10.6H25C25 5.4 19.5 0 12.6 0v1.5Z" />
  <path
    d="M12.6 9.2v1.6c.8 0 1.4.6 1.4 1.3h1.6a3 3 0 0 0-3-3ZM12.6 6.1c3.3 0 6.2 2.7 6.2 6h1.6c0-4.1-3.5-7.5-7.7-7.5v1.5h-.1Z" />
</svg>
