<svg width="102" height="78" viewBox="0 0 102 78" xmlns="http://www.w3.org/2000/svg">
          <path
            d="M98.2 18.3s-.9-7-3.8-10.2c-3.7-4-7.8-4.1-9.6-4.4-13.5-1-33.8-1-33.8-1h-.1s-20.3 0-33.8 1c-1.9.3-6 .4-9.6 4.4-2.8 3.1-3.8 10.2-3.8 10.2s-1 8.3-1 16.6v7.8c0 8.4 1 16.7 1 16.7s.9 7 3.8 10.2c3.7 4 8.5 4 10.6 4.4 7.8.8 32.9 1 32.9 1s20.3 0 33.8-1c1.9-.3 6-.4 9.6-4.4 2.8-3.1 3.8-10.2 3.8-10.2s1-8.3 1-16.7V35c0-8.3-1-16.6-1-16.6Z"
            fill="#63D1BB" />
          <path
            d="M50.9 77.8c-1 0-25.3-.3-33-1h-.2l-1.2-.2c-2.5-.3-7.3-1-11-5-3.4-3.7-4.4-11-4.5-11.8 0-.3-1-8.6-1-17v-7.7c0-8.5 1-16.7 1-17 0-.9 1.1-8 4.5-11.8 4-4.5 8.6-5 10.8-5.2h.6C30.4 0 50.7 0 51 0h.1c.2 0 20.5 0 34 1l.6.1c2.2.2 6.8.7 10.8 5.2 3.5 3.6 4.5 11 4.6 11.7 0 .3 1 8.6 1 17V43c0 8.4-1 16.6-1 16.9-.1.9-1.2 8.2-4.6 11.8-4 4.5-8.6 5-10.8 5.2H85c-13.5 1-33.9 1-34.1 1Zm-32.3-6.5c7.6.7 31.6 1 32.4 1 .7 0 20.4 0 33.5-1h.6c1.8-.3 4.6-.6 7.3-3.4 1.8-2 3-7 3.1-8.7.1-.5 1-8.5 1-16.3V35c0-8-1-15.9-1-16.4-.4-2.4-1.5-6.8-3.2-8.6-2.7-3-5.5-3.1-7.3-3.3l-.6-.1c-13.3-1-33.3-1-33.5-1h-.1c-.2 0-20.3 0-33.5 1h-.6c-1.8.3-4.6.6-7.3 3.4-1.8 2-3 7-3.1 8.7-.1.6-1 8.6-1 16.4V43c0 7.8 1 15.8 1 16.3.3 2.4 1.4 6.9 3.1 8.6 2.4 2.6 5.4 3 7.6 3.3l1.6.1Z"
            fill="#fff" />
          <path d="M38.8 20.8v36.1L69 39 38.8 20.8Z" fill="#fff" />
        </svg>
