<svg width="35" height="34" fill="none" xmlns="http://www.w3.org/2000/svg"><path d="M.3 14a16 16 0 0 0 0 6.2L4.5 17 .3 14ZM24.9 1.6A18 18 0 0 0 9.3 2l7.6 5.5 8-6ZM34.5 13l-4.9 3.7 5 3.7c.5-2.4.5-5 0-7.3ZM9.4 32a17.8 17.8 0 0 0 16 .2l-8.3-6L9.4 32ZM8 14.2 1.7 9.7l-.8 2 5.4 4L8 14.2Zm11 10.6 8.4 6.2.8-.6 1-.8-8.5-6.2-1.8 1.4Zm-7.4-13.2L4.1 6c-.5.5-1 1.1-1.3 1.7l7 5.2 1.8-1.4Zm10.9 10.6 8.3 6c.5-.5.9-1 1.3-1.7l-7.9-5.7-1.7 1.4ZM15.2 9 7.3 3.1c-.2 0-.4.3-.6.4l-1.1 1 7.8 5.6 1.8-1.3ZM26 19.4l7.2 5.1 1-2-6.3-4.5-1.8 1.4Zm.9-16.7L.9 22.4l.8 2L28.7 4c-.5-.5-1.1-1-1.8-1.3Zm4.4 3.8c-.3-.4-.6-.8-1-1L3 26.1c.2.5.5 1 .8 1.2 0 .2.3.4.4.5L31.8 7.1l-.5-.6ZM32.9 9 5.7 29.4l1.7 1.4 26.5-20-1-2Z" fill="#63D1BB"/></svg>